<?xml version="1.0" standalone="no"?>
<!DOCTYPE svg PUBLIC "-//W3C//DTD SVG 20010904//EN"
 "http://www.w3.org/TR/2001/REC-SVG-20010904/DTD/svg10.dtd">
<svg version="1.0" xmlns="http://www.w3.org/2000/svg"
 width="374.000000pt" height="972.000000pt" viewBox="0 0 374.000000 972.000000"
 preserveAspectRatio="xMidYMid meet">

<g transform="translate(0.000000,972.000000) scale(0.100000,-0.100000)"
fill="#000000" stroke="none">
<path d="M1530 9491 c-19 -4 -44 -12 -55 -18 -11 -6 -40 -14 -64 -18 -64 -10
-187 -62 -250 -104 -29 -20 -77 -49 -106 -66 -54 -31 -187 -167 -240 -246 -16
-24 -50 -67 -76 -95 -26 -27 -54 -65 -64 -84 -10 -19 -24 -40 -31 -47 -7 -7
-28 -43 -46 -80 -23 -48 -32 -80 -33 -118 0 -29 -5 -58 -11 -66 -20 -25 -34
-112 -32 -199 0 -47 -2 -112 -6 -145 -4 -33 -8 -377 -10 -765 -3 -438 -8 -720
-14 -745 -11 -42 -10 -155 7 -615 6 -151 9 -392 8 -535 0 -143 -2 -348 -2
-455 0 -107 -5 -303 -9 -435 -5 -132 -9 -278 -11 -325 -6 -210 -19 -401 -28
-407 -6 -3 -70 -7 -143 -7 -127 -1 -133 -2 -159 -26 -25 -24 -26 -28 -21 -95
3 -38 10 -166 15 -282 8 -204 9 -214 34 -251 22 -34 32 -40 84 -50 32 -6 84
-14 115 -17 32 -4 61 -12 65 -18 4 -7 8 -59 9 -117 2 -111 11 -251 18 -285 3
-11 6 -60 7 -110 1 -91 7 -110 59 -205 26 -47 47 -123 53 -193 4 -40 15 -73
36 -107 17 -28 31 -54 31 -59 0 -4 16 -29 35 -54 19 -25 35 -52 35 -59 0 -12
39 -54 169 -185 30 -30 73 -66 95 -80 23 -14 50 -33 61 -43 11 -9 58 -37 105
-62 47 -25 108 -59 137 -76 43 -26 82 -40 182 -68 10 -3 12 -18 7 -62 -6 -58
-3 -74 34 -197 29 -94 33 -120 26 -150 -6 -25 -50 -50 -111 -64 -17 -4 -35
-17 -42 -31 -6 -13 -18 -27 -26 -31 -8 -5 -120 -6 -248 -4 -129 3 -241 5 -249
5 -8 1 -63 -2 -122 -6 -142 -9 -139 -6 -150 -177 -10 -156 -11 -176 -2 -243 3
-31 1 -60 -5 -72 -6 -11 -15 -51 -20 -88 -9 -60 -8 -73 13 -121 12 -29 33 -61
46 -70 31 -22 213 -30 290 -13 53 12 98 14 220 9 30 -2 79 1 107 6 41 6 63 4
99 -10 37 -14 69 -17 172 -13 73 2 136 9 149 16 60 33 118 31 268 -7 58 -15
107 -13 134 5 20 15 77 17 508 18 l485 1 22 26 c21 24 23 40 29 180 3 85 2
186 -3 224 -5 39 -10 120 -10 180 -1 106 -2 111 -26 128 -18 13 -55 21 -132
27 -59 5 -140 14 -180 20 -50 8 -91 8 -130 1 -203 -35 -200 -35 -255 -22 -36
8 -68 24 -93 45 l-39 34 4 223 c3 220 8 259 35 259 34 0 174 54 215 84 25 18
71 45 101 60 31 15 64 40 75 57 11 16 55 59 98 95 42 36 77 71 77 77 0 12 60
77 142 153 23 22 51 58 62 80 10 21 25 53 33 69 24 48 53 145 53 178 0 17 8
35 17 42 13 10 17 25 15 65 -1 33 3 59 13 73 20 28 19 87 -1 116 -15 21 -15
26 1 66 9 25 14 48 12 52 -3 5 0 94 7 198 l11 190 125 0 c132 0 153 6 187 54
12 18 13 33 3 94 -5 39 -12 155 -14 257 -3 171 -5 189 -27 235 -21 43 -30 51
-74 67 -30 10 -81 17 -127 18 -94 0 -111 12 -104 74 3 22 8 61 10 86 3 25 6
140 7 255 1 116 8 260 15 320 8 61 14 200 14 310 1 110 6 245 12 300 20 189
28 1575 9 1599 -16 19 -23 80 -12 108 13 35 -3 278 -21 310 -8 16 -12 85 -13
213 -1 105 -8 242 -16 305 -7 63 -15 205 -17 315 -6 361 -8 398 -26 455 -10
30 -23 71 -28 90 -17 59 -78 182 -109 221 -16 20 -29 47 -29 60 0 31 -24 66
-80 121 -52 50 -129 134 -181 199 -41 50 -142 109 -188 109 -19 0 -37 9 -53
28 -28 33 -105 72 -143 72 -27 0 -101 21 -161 46 -30 13 -253 20 -477 15 -54
-1 -105 0 -115 2 -9 3 -33 1 -52 -2z m490 -904 c14 -9 31 -17 40 -17 8 0 37
-20 65 -45 27 -25 53 -45 57 -45 13 0 89 -104 94 -129 3 -14 11 -39 19 -56 15
-33 42 -155 49 -225 3 -25 10 -79 16 -120 7 -49 7 -100 1 -145 -8 -64 -7 -157
4 -340 3 -38 8 -182 11 -320 4 -137 8 -275 10 -305 16 -237 21 -778 11 -1110
-3 -96 -5 -202 -4 -235 2 -215 -2 -469 -10 -520 -4 -33 -6 -103 -3 -155 3 -52
2 -169 -2 -260 -23 -539 -30 -676 -36 -682 -6 -6 -256 -11 -512 -11 -52 1
-113 0 -135 0 -78 -1 -260 16 -273 26 -9 7 -11 65 -7 252 3 134 8 252 13 264
4 11 5 62 1 113 -3 51 -4 143 -2 203 1 61 2 157 1 215 -2 209 1 320 9 335 5 8
6 50 2 93 -7 75 -14 248 -25 652 -2 107 -7 202 -9 210 -3 8 -6 277 -9 597 -2
320 -7 587 -11 594 -4 6 -7 80 -6 163 1 86 -2 164 -8 179 -8 20 -7 44 4 90 10
42 14 117 14 224 0 151 1 164 24 210 13 26 30 65 36 85 7 21 18 41 25 45 7 5
28 30 47 57 68 98 163 132 362 131 89 -1 118 -5 137 -18z m-113 -5425 c129 -8
196 -8 230 -1 68 15 176 21 190 11 22 -15 35 -111 22 -168 -7 -32 -9 -70 -4
-100 4 -27 7 -66 6 -87 -2 -21 -4 -62 -6 -90 -3 -59 -21 -108 -63 -169 -16
-24 -32 -54 -35 -68 -7 -26 -109 -100 -138 -100 -8 0 -25 -7 -37 -16 -16 -11
-50 -15 -129 -16 l-108 -2 -107 51 c-58 29 -134 74 -167 100 -76 62 -141 155
-141 203 0 19 -7 66 -17 104 -13 56 -15 84 -7 149 6 45 7 102 4 128 -8 63 -5
69 43 70 23 0 51 4 62 9 23 10 136 8 402 -8z"/>
</g>
</svg>
