<svg width="300" height="300" xmlns="http://www.w3.org/2000/svg" preserveAspectRatio="xMidYMid meet" version="1.0">
 <g>
  <title>Layer 1</title>
  <path fill="#FFFFFF" id="svg_2" d="m55.3,27.49999c-5.4,6.5 -11.1,16.8 -14.1,25.5c-2,6.2 -2.6,10 -2.9,21.1c-0.5,12.7 -0.3,14.3 2.2,22.5c3.1,10.2 5.1,14.4 10.8,22.9c4.7,6.9 6.4,8.4 9.3,8.5c3.8,0 3.3,-2.4 -2.5,-11.5c-3.2,-5.3 -7,-13 -8.9,-18.5c-2.9,-8.6 -3.2,-10.6 -3.2,-21.3c0,-17.2 3.5,-28.6 12.7,-41.4c2.9,-4.1 5.3,-7.8 5.3,-8.2c0,-0.9 -3.3,-4.1 -4.3,-4.1c-0.3,0 -2.3,2 -4.4,4.5z"/>
  <path fill="#FFFFFF" id="svg_3" d="m242.00001,24.99999l-2.1,2.1l2.9,3.7c5.2,6.5 10.2,16 12.7,23.9c2.2,6.7 2.5,9.6 2.5,21.8c0,12.9 -0.3,14.7 -3,22.3c-2.8,8 -7.5,16.6 -12.5,22.8c-2.3,2.8 -2.3,3.2 -0.9,5.2c2.3,3.4 3.9,2.7 8.7,-3.6c8.7,-11.2 14.4,-25.4 15.6,-38.3c1.9,-20.6 -2,-35.8 -13.7,-53.2c-5.5,-8.3 -7.4,-9.5 -10.2,-6.7z"/>
  <path fill="#FFFFFF" id="svg_4" d="m79.1,48.49999c-12.3,14.1 -13.1,36 -1.8,52.7c3.8,5.6 4.8,6.2 7.6,4.2c2.8,-2 2.7,-3.4 -0.9,-9.1c-8.1,-13.1 -7.6,-27.5 1.5,-42.9c2,-3.4 1.6,-5.7 -1.4,-7.3c-1.6,-0.9 -2.4,-0.5 -5,2.4z"/>
  <path fill="#FFFFFF" id="svg_5" d="m219.2,46.99999c-1.2,1.2 -2.2,2.5 -2.2,2.9c0,0.5 1.5,3.4 3.4,6.6c7.6,12.5 7.4,28.2 -0.5,40.6c-3.1,4.8 -3,7.2 0.1,8.9c2.7,1.4 6.1,-1.8 9.7,-9.2c8,-16.7 6.9,-31.9 -3.7,-47.3c-1.7,-2.5 -3.4,-4.5 -3.9,-4.5c-0.4,0 -1.7,0.9 -2.9,2z"/>
  <path fill="#1616f7" id="svg_6" d="m138.2,50.89999c-8.2,2.9 -15.4,8.2 -19.6,14.5c-7,10.5 -7,10.8 -7.4,35.8l-0.4,22.8l41.1,0l41.1,0l0,-16.8c-0.1,-9.2 -0.5,-19.8 -0.9,-23.5c-1.8,-13.5 -10.3,-25 -23.1,-31.1c-5.6,-2.6 -7.8,-3.1 -16,-3.3c-7.2,-0.2 -10.8,0.2 -14.8,1.6z" stroke="#FFFFFF"/>
  <path fill="#FFFFFF" id="svg_7" d="m86.2,129.3l-3.2,3.3l0,12c0,39.5 22.3,75.8 53,86.4l7.5,2.6l0.3,10.2l0.3,10.2l-17.3,0c-14.1,0 -17.8,0.3 -19.6,1.6c-2.7,1.9 -5.2,6.5 -5.2,9.6c0,2.4 3.4,8.8 5.4,10c0.6,0.4 21,0.8 45.3,0.8l44.2,0l2.6,-3.7c2.8,-4.3 3.2,-8.1 1,-12.3c-2.9,-5.6 -4.4,-6 -22.7,-6l-16.8,0l0,-10.3l0,-10.4l4.3,-1.2c20.6,-6.1 39.2,-24.6 48.4,-48.1c6.9,-17.5 10.3,-43.2 6.9,-51.5c-2,-4.6 -5.9,-7.1 -9.1,-5.7c-4.5,2.1 -5.8,5.6 -6.6,17.6c-2.1,29.6 -14.8,52.7 -34.4,62.6c-6.8,3.4 -7.4,3.5 -18.5,3.5c-10.6,-0.1 -11.9,-0.3 -17.3,-2.9c-7.8,-3.9 -18.9,-14.4 -23.7,-22.5c-6.2,-10.4 -10,-23.3 -11,-37.2c-1,-12.8 -2.5,-17.7 -6.1,-20.3c-3.3,-2.2 -4.1,-2.1 -7.7,1.7z"/>
  <path fill="#f2e830" id="svg_1" d="m138.2,201.61437c-8.2,-2.88073 -15.4,-8.14552 -19.6,-14.40367c-7,-10.43024 -7,-10.72825 -7.4,-35.56217l-0.4,-22.64853l41.1,0l41.1,0l0,16.68839c-0.1,9.13888 -0.5,19.66846 -0.9,23.34388c-1.8,13.41032 -10.3,24.83392 -23.1,30.8934c-5.6,2.58273 -7.8,3.07941 -16,3.27808c-7.2,0.19867 -10.8,-0.19867 -14.8,-1.58937l0,-0.00001z" stroke="#FFFFFF"/>
 </g>

</svg>
