<svg width="177" height="213" xmlns="http://www.w3.org/2000/svg" version="1.0" preserveAspectRatio="xMidYMid meet">
 <g>
  <title>Layer 1</title>
  <path stroke-opacity="0.6" fill-opacity="0.6" stroke="#ffffff" fill="#ffffff" d="m3.6,61.47185c-2.6,2.3 -3.6,4 -3.6,6.1c0,1.6 0.5,2.9 1,2.9c0.6,0 1,0.5 1,1c0,0.6 1.5,3.2 3.4,5.9c8.1,11.5 11.5,30.6 8.2,45.9c-0.8,4 -2.2,8.7 -3.1,10.4c-0.8,1.7 -1.5,3.5 -1.5,4.1c0,0.5 -1.6,3.2 -3.5,5.8c-1.9,2.7 -3.5,5.4 -3.5,5.9c0,0.6 -0.4,1 -1,1c-0.5,0 -1,1.3 -1,2.8c0,3.2 4.5,8.2 7.4,8.2c2.1,0 9.6,-7.6 9.6,-9.8c0,-0.5 0.9,-1.7 2,-2.7c1.1,-1 2,-2.2 2,-2.8c0,-0.9 2.4,-6.7 4.1,-9.9c0.5,-1 0.9,-2.6 0.9,-3.6c0,-1 0.4,-2.2 0.9,-2.8c0.6,-0.5 1.5,-5.1 2.1,-10.2c1.2,-9.6 0.2,-24.2 -2.2,-30.7c-3.6,-10.3 -13.4,-26.6 -17.5,-29.2c-1.9,-1.3 -2.4,-1.1 -5.7,1.7z" id="svg_5"/>
  <path stroke-opacity="0.8" fill-opacity="0.8" fill="#ffffff" stroke="#ffffff" d="m56.55198,42.43673c-4.00976,3.19781 -5.55198,5.5614 -5.55198,8.48114c0,2.22456 0.77111,4.03202 1.54222,4.03202c0.92533,0 1.54222,0.69518 1.54222,1.39035c0,0.83421 2.31333,4.44912 5.24354,8.20307c12.49196,15.98904 17.73549,42.54475 12.64618,63.81712c-1.23377,5.5614 -3.39288,12.09606 -4.78087,14.45965c-1.23377,2.3636 -2.31333,4.86623 -2.31333,5.70044c0,0.69518 -2.46755,4.44912 -5.39776,8.06404c-2.93021,3.75395 -5.39776,7.5079 -5.39776,8.20307c0,0.83421 -0.61689,1.39035 -1.54222,1.39035c-0.77111,0 -1.54222,1.80746 -1.54222,3.89298c0,4.44912 6.93998,11.40088 11.41241,11.40088c3.23866,0 14.80528,-10.56667 14.80528,-13.62544c0,-0.69518 1.388,-2.3636 3.08443,-3.75395c1.69644,-1.39035 3.08443,-3.05877 3.08443,-3.89298c0,-1.25132 3.70132,-9.31535 6.32309,-13.76448c0.77111,-1.39035 1.388,-3.61491 1.388,-5.00526c0,-1.39035 0.61689,-3.05877 1.388,-3.89298c0.92533,-0.69518 2.31333,-7.09079 3.23866,-14.18158c1.85066,-13.34737 0.30844,-33.6465 -3.39288,-42.68378c-5.55198,-14.32062 -20.66571,-36.98334 -26.9888,-40.59825c-2.93021,-1.80746 -3.70132,-1.52939 -8.79064,2.3636z" id="svg_1"/>
  <path fill-opacity="0.5" fill="#ffffff" stroke="null" d="m112.84595,5.1494c-6.38874,4.79142 -8.84595,8.33291 -8.84595,12.70768c0,3.33316 1.22861,6.04135 2.45721,6.04135c1.47432,0 2.4572,1.0416 2.4572,2.08322c0,1.24993 3.68582,6.66631 8.35451,12.29102c19.90339,23.95708 28.2579,63.74666 20.14911,95.62c-1.96576,8.33289 -5.40586,18.12404 -7.61734,21.66553c-1.96578,3.54149 -3.68582,7.29129 -3.68582,8.54122c0,1.04162 -3.93152,6.66631 -8.60023,12.08271c-4.66869,5.62469 -8.60023,11.2494 -8.60023,12.29102c0,1.24993 -0.98287,2.08322 -2.4572,2.08322c-1.22861,0 -2.45721,2.7082 -2.45721,5.83302c0,6.66633 11.05744,17.08244 18.18335,17.08244c5.16013,0 23.5892,-15.83251 23.5892,-20.4156c0,-1.0416 2.21148,-3.54149 4.91441,-5.62471c2.70293,-2.08322 4.91441,-4.58309 4.91441,-5.83302c0,-1.87491 5.89731,-13.9576 10.07456,-20.62393c1.22861,-2.08322 2.2115,-5.41638 2.2115,-7.4996c0,-2.08322 0.98289,-4.58309 2.21148,-5.83302c1.47432,-1.04162 3.68582,-10.62446 5.16014,-21.2489c2.94865,-19.99895 0.49144,-50.41403 -5.40586,-63.95499c-8.84595,-21.45722 -32.92658,-55.41377 -43.00114,-60.83015c-4.66869,-2.7082 -5.8973,-2.29155 -14.00609,3.54147z" id="svg_2"/>
 </g>

</svg>